<svg xmlns="http://www.w3.org/2000/svg" xmlns:xlink="http://www.w3.org/1999/xlink" width="291.057" height="83.469" viewBox="0 0 291.057 83.469">
  <defs>
    <linearGradient id="linear-gradient" x1="0.151" y1="0.069" x2="0.638" y2="1" gradientUnits="objectBoundingBox">
      <stop offset="0" stop-color="#eb8296"/>
      <stop offset="0.523" stop-color="#efb043"/>
      <stop offset="1" stop-color="#8cc7bc"/>
    </linearGradient>
  </defs>
  <path id="Path_3410" data-name="Path 3410" d="M-32.337-76.173a6.483,6.483,0,0,0-6.343.637c-1.5.959-2.734,2.571-1.925,3.83.7,1.094,5.639,12.955,5.639,29.8a97.051,97.051,0,0,1-5.106,28.646c-3.413,9.976-7.675,15.935-11.4,15.935a3.507,3.507,0,0,1-2.282-.9c-2.362-1.934-4.177-6.746-5.106-13.54A75.161,75.161,0,0,1-59.015-30.3l.005-.068c0-2.923-2.543-3.976-4.719-3.987h-.045c-2.774,0-5.78,1.578-5.84,4.152-.03,1.405-.03,2.751,0,4.047-.126.367-.307.956-.548,1.75C-76.913-2.3-82.18,2.342-85.412,2.342c-1.91,0-9.037-4.122-9.037-24.284,0-20.952,2.428-37.464,7.207-49.074a6.912,6.912,0,0,0,.508-1.435c.161-1.623-1.513-3.043-4.368-3.706-3.021-.7-7.1-.408-8.926,1.9-2.131,2.7-5.292,14.421-5.292,35.666,0,13.99,2.126,25.54,6.152,33.395C-95.73,1.514-90.89,5.359-85.889,5.359c8.71,0,12.977-10.5,15.8-17.452.538-1.312,1.025-2.518,1.458-3.422,2,11.231,6.5,16.444,9.539,18.749a12.2,12.2,0,0,0,7.036,2.687c4.619,0,11.454-3.927,17.8-22.639,4.2-12.382,6.4-26.117,6.4-33.282C-27.851-63.858-29.738-74.868-32.337-76.173ZM22.216-34.886c-.236-.712-1.387-1.447-5.544-.914h-.005c-.176.019-.4.056-.739.112A48.114,48.114,0,0,1-3.895-36.4a13.763,13.763,0,0,0-8.117-2.556c-8.675,0-11.766,7.9-11.766,15.283,0,14.833,11.967,19.825,17.425,19.825A8.61,8.61,0,0,0-1.07-5.494C2.006-7.8,3.538-12.367,3.5-19.086v-.225A24,24,0,0,0,.448-31.6c1.6.1,3.217.139,4.795.139a67.788,67.788,0,0,0,14.063-1.225c2.508-.611,2.955-1.432,2.955-1.93a.822.822,0,0,0-.045-.27ZM-5.795-7.225c-1.377,0-5.157-2.582-5.157-10.9a22.743,22.743,0,0,1,4.76-13.664c4.021,3.969,4.89,9.95,4.89,14.376,0,6.093-2.325,10.186-4.5,10.186ZM71.486-28.834c-1.492-1.045-3.292.233-3.971.716-.111.079-.2.142-.266.184a.4.4,0,0,0-.05.034.474.474,0,0,0-.055.034,14.508,14.508,0,0,1-7.072,2.428,6.453,6.453,0,0,1-4.066-1.106c-2.347-1.822-2.141-5.7-1.975-8.811.04-.764.08-1.488.08-2.144,0-7.518-3.5-11.329-10.409-11.329-7.207,0-12.736,14.488-17.611,30.8a148.36,148.36,0,0,1,3.553-21.279,17.811,17.811,0,0,0,.488-2.368,2.231,2.231,0,0,0-1.061-1.739c-1.412-1.042-4.1-1.668-7-1.641-4.2.041-6.845,1.289-7.439,3.523-.277,1.031-1.709,23.22,4.327,38.476v0a0,0,0,0,0,0,0,5.9,5.9,0,0,0,5.2,3.8,3.88,3.88,0,0,0,.558-.041A2.349,2.349,0,0,0,26.93-1.953a.088.088,0,0,1-.011-.034.087.087,0,0,1,0-.034c-.106-.408-.2-.824-.281-1.244A194.954,194.954,0,0,1,35.163-30.9c2.945-7.2,5.006-9.995,5.9-10.666a20.02,20.02,0,0,1,1.236,3.77,49.948,49.948,0,0,0,1.98,6.24c2.176,5.307,8.6,9.313,14.942,9.313A17.769,17.769,0,0,0,69.511-25.36c.191-.123.361-.232.507-.318l.02-.015a.115.115,0,0,1,.031-.015c1.362-.918,1.945-1.578,1.955-2.2a1.123,1.123,0,0,0-.538-.922Zm49.009,1.417a1.99,1.99,0,0,0-1.573-.142,3.1,3.1,0,0,0-1.955,2.586c-.005.007,0,.015,0,.022a.058.058,0,0,0-.005.026c-.09,1.813-1.875,8.087-4.131,13.765C109.382-2.47,107.065-.566,106.462-.566c-.025,0-2.207-.12-3.815-10.384a121.833,121.833,0,0,1-1.292-16.92,170.912,170.912,0,0,1,5.74-42.97c.6-2.338.689-2.736.623-3.036-.417-1.851-2.719-3.264-5.86-3.6-3.156-.337-5.921.551-7.036,2.267-.849,1.3-3.589,18.15-4.106,33.541a17.2,17.2,0,0,0-8.821-2.046c-6.66,0-17.933,3.751-17.933,17.812,0,15.028,10.705,21.267,16.435,21.267,5.383,0,9.092-6.292,11.289-19.18.3,2.342.679,4.808,1.156,7.244C95.4-3.527,99.657,3.084,105.472,3.084c4.5,0,8.308-4.355,11.65-13.315a94.8,94.8,0,0,0,3.991-14.642v0c.3-1.282.1-2.114-.618-2.541ZM86.886-22.272c-3.754,13.409-6.127,13.562-6.2,13.562-1.588-.364-3.669-8.338-3.669-11.078,0-12.607,8.434-18.393,9.826-18.505a6.519,6.519,0,0,1,3.443,1.143C90.117-35.98,88.765-28.98,86.886-22.272ZM142.732-25.9a1.768,1.768,0,0,0-1.176-.382c-2.332,0-2.588,1.447-2.794,2.608-.065.36-.131.731-.236,1.124a.027.027,0,0,0-.005.019c0,.007-.005.015-.005.022C135.877-9.362,130.218.157,128.443.813c-.316-.086-2.413-1.117-3.971-13.469-.915-7.222-1.2-14.927-1.2-16.463,0-18.254,4.388-35.8,5.825-41.568a13.063,13.063,0,0,0,.417-1.836c0-.982-1.236-3.778-6.715-3.778-4.348,0-6,2.219-6.4,2.9s-3.192,12.007-3.192,38.634c0,24.857,5.181,39.113,14.224,39.113,10.052,0,15.36-25.828,15.41-26.087v-.015l.02-.1c.418-2.515.573-3.455-.13-4.044Zm42.245-.322a1.871,1.871,0,0,0-1.493-.27c-1.091.247-1.955,1.383-2.558,3.373v0C178.242-14.08,171.11,1.214,161.4,1.214c-4.709,0-7.821-3.706-9.595-6.817a26.077,26.077,0,0,1-3.347-11.749,28.368,28.368,0,0,1,.467-4.954c5.725.423,10.253-.427,13.47-2.533a11.433,11.433,0,0,0,5.127-9.669,13.77,13.77,0,0,0-1.86-6.363c-2.232-3.755-6.167-5.738-11.384-5.738-8,0-13.792,3.129-16.747,9.043A26.31,26.31,0,0,0,135.2-25.9c0,12.056,5.72,19.484,10.52,23.591C151.649,2.762,158.1,4.6,161,4.6c7,0,13.1-4.209,18.119-12.509A61.057,61.057,0,0,0,185.349-22.5c.04-.139.07-.232.085-.289v0c.528-1.578.36-2.863-.457-3.437Zm-32.162-7.326c2.639-5.074,5.142-7.4,5.971-7.589.915.319,3.935,2.762,3.935,7.3a8.208,8.208,0,0,1-4.157,7.162c-2.262,1.267-5.232,1.578-8.846.922A41.453,41.453,0,0,1,152.815-33.552Z" transform="translate(105.32 77.548)" fill="url(#linear-gradient)"/>
</svg>
